<svg width="30" height="29" viewBox="0 0 30 29" fill="none" xmlns="http://www.w3.org/2000/svg">
<path d="M23.8216 25.8572C22.9999 26.6708 21.8859 27.1264 20.7254 27.1234H5.40797C2.98916 27.1234 1.02832 25.1768 1.02832 22.7756V11.7483C1.05056 10.8027 1.50066 9.91735 2.25371 9.33788L10.5138 2.72605C11.9403 1.4988 14.0471 1.46086 15.5175 2.63594L23.9704 9.33788C24.6895 9.93495 25.105 10.8177 25.105 11.7483V22.7868C25.105 23.9389 24.6433 25.0436 23.8216 25.8572Z" stroke="#DBDDE7" stroke-width="1.8" stroke-linecap="round" stroke-linejoin="round"/>
<path d="M8.45935 21.2465C8.45935 20.6942 8.90707 20.2465 9.45935 20.2465H17.4594C18.0116 20.2465 18.4594 20.6942 18.4594 21.2465C18.4594 21.7987 18.0116 22.2465 17.4594 22.2465H9.45935C8.90707 22.2465 8.45935 21.7987 8.45935 21.2465Z" fill="#DBDDE7"/>
</svg>
