<svg width="600" height="185" viewBox="0 0 600 185" fill="none" xmlns="http://www.w3.org/2000/svg">
<g clip-path="url(#clip0_433_2272)">
<path d="M249.704 39.1066C239.954 38.5265 229.438 39.3948 219.647 39.3162C215.513 39.9638 211.712 42.4154 209.518 45.9562C207.552 44.9718 205.691 43.7254 203.632 42.8571C197.243 40.1584 191.015 39.567 184.154 39.2938C167.175 38.6088 150.027 39.4397 133.01 39.1066C131.67 38.9195 129.393 39.99 128.335 39.99C127.341 39.99 124.959 39.189 123.481 39.1066C106.153 38.1484 87.9467 39.8477 70.5285 39.1066C49.34 39.844 35.1106 48.2919 23.9161 65.8988C12.9317 83.1726 1.3846 103.201 0.0415669 124.094C-0.0897356 126.142 0.139106 128.32 0.0415669 130.383C0.544268 132.527 0.653062 134.739 1.17452 136.888C5.1286 153.177 19.208 159.574 34.878 160.214C53.1778 160.963 71.9878 159.641 90.3402 160.203C92.9887 159.93 95.4835 159.151 97.6894 157.658C98.7511 156.939 99.6252 155.996 100.597 155.172C102.139 155.827 103.583 156.688 105.147 157.291C110.152 159.215 116.308 160.012 121.665 160.214C141.068 160.951 160.928 159.641 180.38 160.214C182.672 159.634 184.552 159.757 186.844 160.214H262.485C265.07 159.975 267.494 159.267 269.684 157.875C270.607 157.291 271.309 156.505 272.198 155.898C274.985 157.137 277.761 158.197 280.751 158.863C284.297 159.649 288.367 160.079 292.002 160.214C312.11 160.963 332.766 159.63 352.863 160.214C365.764 159.552 379.506 161.068 392.31 160.214C395.015 160.034 397.802 159.024 400.015 157.482L416.428 143.857C418.383 146.833 419.857 150.28 421.778 153.256C424.438 157.384 428.399 159.769 433.347 160.214L468.747 160.102L472.517 185H472.697C479.442 176.635 486.652 168.595 493.443 160.244L518.859 160.184C523.211 159.772 527.24 157.534 529.742 153.975C533.828 148.166 537.14 141.028 540.974 134.998L546.62 117.814C557.147 107.655 567.76 97.5868 578.298 87.4396C581.652 84.2094 585.696 81.1551 588.262 77.2587C591.469 72.3816 595.303 66.1009 598.05 60.973C598.605 59.94 599.231 58.7198 599.513 57.5819C599.749 56.6237 599.756 55.6842 600 54.7447V52.5888C599.741 51.7766 599.775 50.9119 599.588 50.0361C598.406 44.6163 593.12 40.0386 587.643 39.3162C576.433 39.4547 564.429 38.4441 553.268 39.1066C545.071 39.5932 541.773 45.0093 536.352 50.0773C535.576 50.8071 534.683 51.4734 533.921 52.2295C532.65 48.2881 531.171 44.5115 527.675 42.0186C525.162 40.2258 522.337 39.3012 519.253 39.1066H498.455L493.405 4.6189H493.225C483.317 16.1622 473.065 27.4548 463.074 38.9457C458.989 39.2713 456.25 40.1284 452.99 42.5352C449.726 44.9419 446.729 47.8764 443.409 50.2345L443.011 49.9612C440.273 44.7211 436.836 40.3156 430.605 39.3424C419.182 39.4435 406.914 38.4291 395.536 39.1066C389.47 39.4659 384.923 42.5576 382.214 47.9213C381.881 47.9138 379.727 46.0723 379.198 45.7204C371.654 40.7161 363.367 39.6531 354.491 39.2938C336.761 38.5751 318.803 39.2713 301.062 39.3424M594.744 59.4721C591.518 65.5058 587.294 71.5432 583.708 77.386L543.458 115.736L537.553 133.74C533.97 139.471 530.8 145.875 527.041 151.459C524.944 154.573 522.119 156.243 518.341 156.61L493.045 156.703L477.094 175.639L476.572 176.017L473.417 154.457L470.348 155.977L467.212 156.621C456.322 156.048 444.692 157.358 433.888 156.621C428.23 156.235 426.152 153.447 423.511 149.008C421.421 145.493 419.564 141.814 417.505 138.284C417.216 138.314 417.01 138.49 416.792 138.647C410.426 143.288 404.54 149.749 398.14 154.353C396.249 155.711 394.279 156.389 391.95 156.621C378.508 156.827 365.018 156.408 351.606 156.419C332.132 156.437 311.971 157.321 292.542 156.621C288.367 156.471 284.034 156.007 279.997 154.944C276.891 154.128 273.957 152.84 271.298 151.055C269.343 154.386 265.978 156.329 262.125 156.621H187.028C184.443 155.936 182.605 155.936 180.02 156.621C160.857 156.078 141.319 157.321 122.205 156.621C115.922 156.393 108.629 155.412 103.095 152.331C102.544 152.025 99.9028 150.142 99.7002 150.138C99.5051 150.138 99.4638 150.213 99.3438 150.325C99.0362 150.617 98.2746 152.219 97.7269 152.844C95.7198 155.124 92.8274 156.393 89.8075 156.621C71.8003 156.071 53.3804 157.325 35.4182 156.621C14.1322 155.786 2.65261 145.287 3.82683 123.466C4.85474 104.313 16.5369 84.3741 26.5459 68.5226C37.4365 51.2713 49.6477 43.7441 70.3634 42.8945C88.6333 42.1459 107.128 42.8833 125.409 42.9319C127.713 43.8527 128.954 43.8527 131.262 42.9319C148.533 42.7897 165.978 42.2657 183.246 42.8945C189.2 43.1116 194.489 43.411 200.18 45.3985C204.048 46.7498 207.406 48.7822 210.441 51.5146C212.673 47.3374 214.984 43.7853 220.033 42.9357C229.51 42.9544 239.721 42.1384 249.164 42.6999C257.132 43.1752 262.14 49.6094 259.735 57.3985L247.446 95.1688H276.433C275.563 92.8145 275.574 90.7484 276.163 88.3416C278.024 80.7022 281.678 72.7297 283.843 65.1015L294.804 46.9332C297.213 44.0286 300.158 42.902 303.883 42.6999C319.692 41.8427 336.27 43.3661 352.157 42.6999C362.425 42.9993 373.789 44.3318 381.232 52.1359C381.494 52.4091 382.47 53.8464 382.582 53.8502C382.905 53.8502 383.01 53.5732 383.179 53.3673C384.263 52.0199 385.197 49.8003 386.195 48.2919C388.637 44.6013 391.391 42.9806 395.896 42.6999C406.952 42.0112 418.953 43.048 430.065 42.9357C437.489 44.1821 438.198 50.3954 442.006 55.2762C442.141 55.4484 442.25 55.6431 442.509 55.6168L456.734 44.2944C458.494 43.295 460.508 42.8646 462.519 42.6999C463.281 42.6362 465.093 42.9095 465.599 42.5389C473.443 33.7429 481.142 24.7486 489.17 16.1136C489.582 15.6719 490.033 15.2152 490.524 14.8597L494.486 42.7073L518.713 42.6999C521.335 42.8795 523.822 43.557 525.901 45.2264C529.911 48.4453 530.275 54.363 532.567 58.6936L545.799 45.8477C548.278 43.7179 550.522 42.8945 553.808 42.6999C564.038 42.0935 574.862 43.1752 585.152 42.6999C594.182 43.0929 599.07 51.3761 594.744 59.4721Z" fill="#1B1F1C"/>
<path d="M249.164 42.6999C239.721 42.1385 229.509 42.9545 220.033 42.9357C214.984 43.7854 212.673 47.3375 210.441 51.5146C207.406 48.7823 204.048 46.7498 200.18 45.3986C194.489 43.4111 189.2 43.1117 183.246 42.8946C165.978 42.2658 148.533 42.7898 131.261 42.932C128.954 43.8528 127.712 43.8528 125.409 42.932C107.128 42.8834 88.6331 42.146 70.3632 42.8946C49.6475 43.7442 37.4363 51.2713 26.5457 68.5227C16.5367 84.3742 4.85455 104.313 3.82664 123.466C2.65242 145.287 14.132 155.786 35.418 156.621C53.3802 157.325 71.8001 156.071 89.8073 156.621C92.8272 156.393 95.7196 155.124 97.7267 152.844C98.2744 152.219 99.036 150.617 99.3436 150.325C99.4636 150.213 99.5049 150.138 99.7 150.138C99.9026 150.138 102.544 152.025 103.095 152.332C108.629 155.412 115.921 156.393 122.205 156.621C141.319 157.321 160.857 156.078 180.02 156.621C182.604 155.936 184.443 155.936 187.027 156.621H262.125C265.978 156.329 269.343 154.386 271.297 151.055C273.957 152.841 276.891 154.128 279.997 154.944C284.034 156.007 288.367 156.471 292.542 156.621C311.971 157.321 332.132 156.438 351.606 156.419C365.017 156.408 378.508 156.827 391.949 156.621C394.279 156.389 396.249 155.711 398.139 154.353C404.539 149.749 410.426 143.288 416.792 138.647C417.009 138.49 417.216 138.314 417.505 138.284C419.564 141.814 421.421 145.493 423.511 149.008C426.152 153.447 428.23 156.235 433.887 156.621C444.692 157.358 456.321 156.048 467.212 156.621L470.348 155.977L473.417 154.458L476.572 176.017L477.093 175.639L493.045 156.703L518.341 156.61C522.119 156.243 524.944 154.574 527.041 151.459C530.8 145.875 533.97 139.471 537.553 133.74L543.457 115.736L583.707 77.386C587.294 71.5433 591.518 65.5059 594.744 59.4722C599.07 51.3761 594.182 43.093 585.152 42.6999C574.861 43.1753 564.038 42.0936 553.808 42.6999C550.522 42.8946 548.278 43.718 545.798 45.8478L532.567 58.6937C530.275 54.363 529.911 48.4454 525.9 45.2265C523.822 43.5571 521.335 42.8796 518.713 42.6999L494.485 42.7074L490.524 14.8597C490.032 15.2153 489.582 15.672 489.17 16.1136C481.141 24.7487 473.443 33.743 465.599 42.539C465.092 42.9096 463.28 42.6363 462.519 42.6999C460.508 42.8646 458.493 43.2951 456.734 44.2944L442.508 55.6169C442.25 55.6431 442.141 55.4485 442.006 55.2763C438.198 50.3955 437.489 44.1822 430.065 42.9357C418.953 43.048 406.952 42.0112 395.896 42.6999C391.39 42.9807 388.637 44.6014 386.195 48.2919C385.197 49.8004 384.263 52.0199 383.178 53.3674C383.01 53.5733 382.905 53.8502 382.582 53.8502C382.469 53.8465 381.494 52.4092 381.231 52.136C373.788 44.3319 362.425 42.9994 352.157 42.6999C336.27 43.3662 319.692 41.8428 303.883 42.6999M482.604 162.722L480.44 128.945L479.821 131.109L469.609 148.053C469.031 148.749 468.124 149.217 467.212 149.255H433.707C432.631 149.24 431.749 148.502 431.138 147.686L419.489 127.145C419.242 127.145 416.69 129.308 416.255 129.668C408.512 136.065 400.99 142.768 393.112 148.978L391.949 149.255C379.206 148.712 365.899 149.951 353.223 149.255C352.165 149.195 351.576 148.705 350.356 149.255C330.661 148.566 310.366 150.146 290.738 149.255C282.694 148.892 273.841 146.784 270.221 138.831C270.003 139.033 269.782 139.227 269.617 139.482C267.959 142.053 266.428 145.613 264.623 147.975C264.113 148.641 263.318 149.098 262.481 149.251H186.671C185.084 148.989 184.049 147.713 183.79 146.193C183.216 146.201 182.683 147.855 182.169 148.349C181.697 148.802 180.845 149.176 180.192 149.247L120.224 149.255C112.928 148.723 104.787 147.241 100.844 140.384L99.1673 136.671C99.0172 137.053 98.6421 137.285 98.4582 137.584C96.4925 140.837 94.6205 144.711 92.4896 147.799C92.0057 148.502 91.1428 148.993 90.3325 149.236L33.6173 149.255C21.061 148.487 11.8286 142.997 11.0258 129.574C9.84404 109.699 23.0231 87.3012 33.4597 71.1091C41.9119 57.9975 52.7349 50.8184 68.7276 50.0661L124.179 50.0886C128.834 51.3387 126.73 55.2988 125.904 58.5177C126.152 58.4691 126.283 58.222 126.399 58.0237C127.581 55.9912 128.815 53.4535 130.147 51.5221C130.68 50.7511 131.584 50.272 132.492 50.0886L185.242 50.0661C192.621 50.5826 201.152 51.7729 206.216 57.7055C208.22 60.0523 209.383 63.0505 209.904 66.0636C210.681 65.8951 210.703 65.0342 211.033 64.499C211.934 63.0243 212.958 61.5982 213.847 60.1197C215.378 57.567 217.171 53.607 218.949 51.3761C219.523 50.6575 220.483 50.0848 221.417 50.0661L250.375 50.1148C252.506 50.8559 253.339 52.3606 252.983 54.6138C248.417 69.1553 243.33 83.547 238.753 98.0847C238.581 98.6274 237.384 102.194 237.541 102.355C251.433 102.449 265.336 102.232 279.232 102.348C279.731 102.352 280.263 102.775 280.552 102.243L284.863 95.0341C285.092 94.3754 284.251 94.1957 283.816 93.6418C283.058 92.6686 282.961 91.6542 283.137 90.449L290.385 68.2195C293.971 62.9269 296.796 57.1665 300.225 51.8066C300.769 50.9569 301.966 50.1223 302.983 50.0661C320.375 50.65 338.243 49.3175 355.579 50.0661C374.557 50.8858 383.437 59.1653 379.551 78.6736C375.694 93.6792 370.063 108.172 365.651 123.013L399.396 96.8383L399.325 96.4378L382.769 71.8015C382.12 70.7161 382.117 69.2713 382.702 68.1634C386.243 63.0018 389.023 57.043 392.493 51.8814C393.056 51.0393 393.559 50.4703 394.587 50.1971C406.175 49.9912 417.861 49.9912 429.449 50.1971C430.057 50.4142 430.684 50.7511 431.077 51.2676L440.396 66.4379C440.82 66.5015 442.767 64.8246 443.255 64.4429C448.938 59.9588 454.442 55.2239 460.107 50.7136C460.317 50.5826 461.307 50.0736 461.446 50.0736H480.53C480.68 50.0736 480.849 49.6394 480.811 49.4523L481.205 31.1641L487.823 23.3039L489.083 50.0736H519.782C520.525 50.0736 522.081 51.4285 522.348 52.1884L529.419 71.6331L529.87 71.4572L550.84 51.058L552.454 50.1522L586.045 50.0736C588.648 50.5302 589.841 53.0268 588.689 55.4073C585.981 61.018 581.381 66.5951 578.572 72.2619L537.159 111.784L530.834 130.989C527.217 136.289 524.37 142.648 520.742 147.87C520.48 148.252 519.253 149.247 518.885 149.247H489.263" fill="url(#paint0_linear_433_2272)"/>
<path d="M586.044 50.0734L552.454 50.152L550.84 51.0578L529.87 71.457L529.419 71.6329L522.348 52.1882C522.081 51.4284 520.525 50.0734 519.782 50.0734H489.083L487.823 23.3037L481.205 31.1639L480.811 49.4521C480.849 49.6392 480.68 50.0734 480.53 50.0734H461.446C461.307 50.0734 460.317 50.5825 460.107 50.7135C454.442 55.2238 448.938 59.9586 443.255 64.4427C442.767 64.8245 440.82 66.5013 440.396 66.4377L431.077 51.2674C430.684 50.7509 430.057 50.414 429.449 50.1969C417.861 49.9911 406.175 49.9911 394.587 50.1969C393.559 50.4702 393.056 51.0391 392.493 51.8813C389.023 57.0428 386.243 63.0016 382.702 68.1632C382.117 69.2711 382.12 70.7159 382.769 71.8014L399.325 96.4376L399.396 96.8381L365.651 123.013C370.063 108.172 375.694 93.679 379.551 78.6735C383.437 59.1651 374.557 50.8856 355.579 50.0659C338.243 49.3173 320.374 50.6498 302.982 50.0659C301.966 50.1221 300.769 50.9568 300.225 51.8064C296.796 57.1664 293.971 62.9268 290.385 68.2193L283.137 90.4488C282.961 91.6541 283.058 92.6684 283.816 93.6416C284.251 94.1955 285.092 94.3752 284.863 95.034L280.552 102.243C280.263 102.774 279.731 102.351 279.232 102.348C265.336 102.232 251.433 102.449 237.541 102.355C237.384 102.194 238.58 98.6272 238.753 98.0845C243.33 83.5468 248.417 69.1551 252.982 54.6137C253.339 52.3604 252.506 50.8557 250.375 50.1146L221.417 50.0659C220.483 50.0847 219.523 50.6573 218.949 51.376C217.171 53.6068 215.377 57.5668 213.847 60.1196C212.958 61.598 211.934 63.0241 211.033 64.4988C210.703 65.0341 210.681 65.895 209.904 66.0634C209.383 63.0503 208.22 60.0522 206.216 57.7053C201.152 51.7727 192.621 50.5825 185.242 50.0659L132.492 50.0884C131.584 50.2718 130.68 50.7509 130.147 51.522C128.815 53.4533 127.581 55.9911 126.399 58.0235C126.283 58.2219 126.152 58.4689 125.904 58.5176C126.729 55.2986 128.834 51.3386 124.178 50.0884L68.7275 50.0659C52.7349 50.8183 41.9118 57.9973 33.4597 71.1089C23.023 87.301 9.84398 109.699 11.0257 129.574C11.8285 142.996 21.061 148.487 33.6172 149.255L90.3324 149.236C91.1428 148.993 92.0056 148.502 92.4895 147.799C94.6204 144.711 96.4924 140.837 98.4582 137.584C98.642 137.285 99.0172 137.053 99.1672 136.671L100.844 140.384C104.787 147.241 112.928 148.723 120.224 149.255L180.192 149.247C180.845 149.176 181.696 148.802 182.169 148.349C182.683 147.855 183.216 146.2 183.79 146.193C184.049 147.713 185.084 148.989 186.671 149.251H262.481C263.318 149.097 264.113 148.641 264.623 147.975C266.428 145.613 267.958 142.053 269.617 139.482C269.782 139.227 270.003 139.033 270.221 138.83C273.841 146.784 282.694 148.892 290.738 149.255C310.365 150.145 330.661 148.566 350.356 149.255C351.576 148.704 352.165 149.195 353.223 149.255C365.899 149.951 379.205 148.712 391.949 149.255L393.112 148.978C400.99 142.768 408.512 136.064 416.255 129.668C416.69 129.308 419.241 127.145 419.489 127.145L431.138 147.686C431.749 148.502 432.631 149.24 433.707 149.255H467.212C468.124 149.217 469.031 148.749 469.609 148.053L479.821 131.109L480.44 128.945L482.604 162.722L487.102 154.906L490.659 149.247H518.885C519.253 149.247 520.479 148.251 520.742 147.87C524.37 142.648 527.217 136.289 530.834 130.989L537.159 111.784L578.571 72.2617C581.381 66.5949 585.981 61.0179 588.689 55.4072C589.841 53.0266 588.648 50.5301 586.044 50.0734ZM99.231 129.458L44.958 129.492C39.5934 129.099 33.4859 128.316 29.2955 124.637C20.9972 117.35 24.9775 100.555 28.1288 91.4819C35.1366 71.3073 45.3482 54.812 68.9151 53.6667H123.563L116.342 75.9261L76.827 75.9373C64.6722 75.4994 57.263 86.107 54.9033 96.8194C53.3276 103.968 54.787 106.734 62.2524 107.206C68.1761 107.577 74.4598 106.922 80.4172 107.217L82.8707 99.301H66.3041L71.5262 82.5923H114.38L99.231 129.458ZM131.925 129.492C118.461 128.971 109.54 125.068 112.883 109.755C116.927 91.2311 128.294 81.5855 147.592 81.6865L177.112 81.7053L177.228 81.5817C177.311 80.6722 177.814 79.7776 177.922 78.8905C178.35 75.3085 176.512 75.3497 173.537 75.039L126.264 75.0465L133.13 53.6929L184.701 53.6592C192.756 54.2132 202.851 55.4221 205.751 64.2743C207.769 70.424 205.86 78.2917 204.097 84.3478L189.447 129.466L131.925 129.492ZM271.571 129.484H197.209L221.695 53.6667H249.426L232.499 105.948H278.954L271.571 129.484ZM359.626 129.402L302.082 129.492C294.789 129.121 284.81 127.908 282.822 119.423C281.055 111.87 285.992 98.9491 290.584 92.8481C297.014 84.2991 307.526 82.0608 317.748 81.6865C327.51 81.331 337.481 81.9897 347.265 81.6716C347.539 81.578 348.211 78.9953 348.256 78.5312C348.447 76.7009 347.809 75.6454 345.982 75.2674C345.757 75.2224 344.564 75.0465 344.407 75.0465H296.421L303.373 53.6555L355.387 53.6667C360.362 54.1046 365.584 54.5575 370.007 57.0503C381.599 63.5855 375.724 79.8824 372.633 89.7377C368.469 103.003 363.899 116.185 359.626 129.402ZM443.979 129.484L430.278 105.398L429.746 105.582L401.306 129.484H363.4L417.947 87.155L395.813 53.6667H428.313L439.23 71.5206C439.702 72.2655 440.918 70.9667 441.454 70.5512C448.477 65.0902 455.2 59.2063 462.166 53.6667H480.44C480.335 58.7833 479.907 63.9187 479.134 68.9792C471.241 75.3534 462.886 81.2748 454.828 87.4881C446.841 88.4875 438.738 88.5511 430.691 88.918C428.35 91.3659 426.208 94.0458 424.077 96.6921L424.347 96.9653C435.677 97.3995 447.13 97.6016 458.246 99.8849C463.839 109.34 470.011 118.461 475.653 127.882C475.949 128.376 476.366 128.923 476.478 129.484H443.979ZM463.517 101.457C475.544 104.964 479.145 117.63 480.26 128.766L463.517 101.457ZM489.627 134.694C490.036 126.703 490.1 118.416 491.841 110.586C491.983 109.938 492.137 109.167 492.321 108.546C492.396 108.284 492.216 108.232 492.681 108.284L495.701 116.249L489.627 134.694ZM479.453 101.453C472.34 93.0577 455.391 92.6235 445.067 92.107C442.538 91.9797 439.353 92.2118 436.949 91.9423C436.678 91.9123 436.393 91.9049 436.326 91.5755C437.733 91.5306 439.154 91.6316 440.565 91.583C450.364 91.2536 468.21 90.913 476.174 85.0739C485.834 77.996 485.823 58.4689 486.21 47.4758C486.375 42.8345 486.273 38.1858 486.472 33.5445C486.521 34.1621 486.716 34.8096 486.75 35.4234C487.429 47.8239 486.754 67.7777 492.475 78.7595C498.8 90.9055 517.261 90.9953 529.318 91.583C532.165 91.7214 535.02 91.7589 537.879 91.7551L537.613 92.1145C529.157 92.3727 520.431 92.4813 512.072 93.7614C496.916 96.082 491.739 101.633 489.473 116.668M582.811 56.3654C567.632 70.8694 552.349 85.2611 537.181 99.7726L527.615 129.484H497.547C497.524 128.938 497.715 128.425 497.858 127.908C500.446 118.585 504.16 109.508 506.839 100.199C507.004 99.9485 506.629 99.2373 506.73 99.1213C506.899 98.9267 511.191 98.4775 511.862 98.4026C519.868 97.5418 527.915 97.4594 535.951 97.1076L544.181 89.0639C542.816 88.6971 541.349 88.9479 539.942 88.888C529.138 88.4201 509.536 88.1357 500.51 82.2368C491.357 76.2555 490.464 63.5593 489.443 53.6667H518.885L528.069 77.9211C528.519 78.0184 533.921 72.4002 534.724 71.6292C540.948 65.6404 547.213 59.6554 553.455 53.6667H585.414C584.6 54.6062 583.711 55.5045 582.811 56.3654Z" fill="#1B1F1C"/>
<path d="M370.007 57.0504C365.584 54.5576 360.362 54.1047 355.388 53.6667L303.373 53.6555L296.422 75.0466H344.407C344.565 75.0466 345.758 75.2225 345.983 75.2674C347.81 75.6455 348.447 76.701 348.256 78.5313C348.211 78.9954 347.54 81.5781 347.266 81.6716C337.482 81.9898 327.51 81.331 317.749 81.6866C307.526 82.0609 297.014 84.2992 290.584 92.8481C285.992 98.9492 281.055 111.87 282.822 119.423C284.811 127.909 294.79 129.121 302.083 129.492L359.627 129.402C363.9 116.186 368.469 103.003 372.633 89.7377C375.725 79.8825 381.599 63.5856 370.007 57.0504ZM338.382 109.1L337.936 109.194C330.26 108.726 321.924 109.778 314.331 109.194C312.107 109.022 311.589 108.337 311.949 106.087C312.557 102.28 317.152 98.4065 320.998 98.4065H341.796C340.907 102.041 339.489 105.552 338.382 109.104V109.1Z" fill="white"/>
<path d="M205.751 64.2744C202.851 55.4222 192.756 54.2133 184.702 53.6593L133.13 53.693L126.265 75.0466L173.537 75.0391C176.512 75.3498 178.35 75.3086 177.923 78.8907C177.814 79.7777 177.311 80.6723 177.229 81.5819L177.112 81.7054L147.592 81.6867C128.294 81.5856 116.927 91.2312 112.883 109.755C109.54 125.068 118.461 128.972 131.926 129.492L189.447 129.466L204.097 84.3479C205.86 78.2918 207.77 70.4241 205.751 64.2744ZM168.109 109.194H143.994C139.639 109.209 142.16 103.8 143.735 101.91C145.071 100.304 148.575 98.4028 150.661 98.4028H171.639L168.109 109.194Z" fill="white"/>
<path d="M114.38 82.5924L99.2311 129.458L44.9618 129.492C39.5972 129.099 33.4898 128.317 29.2993 124.637C21.001 117.35 24.9776 100.555 28.1289 91.482C35.1367 71.3074 45.352 54.8121 68.9189 53.6667H123.563L116.345 75.9262L76.8308 75.9374C64.6722 75.4995 57.263 86.1071 54.9033 96.8194C53.3277 103.969 54.787 106.735 62.2563 107.206C68.1799 107.58 74.4599 106.922 80.421 107.217L82.8708 99.301H66.3041L71.5262 82.5924H114.38Z" fill="white"/>
<path d="M480.44 53.6667C480.335 58.7834 479.907 63.9187 479.13 68.9792C471.241 75.3498 462.883 81.2749 454.824 87.4882C446.837 88.4876 438.738 88.5512 430.687 88.918C428.346 91.3659 426.204 94.0459 424.073 96.6959L424.343 96.9692C435.673 97.4033 447.123 97.6055 458.242 99.8887C463.832 109.343 470.003 118.465 475.649 127.886C475.945 128.38 476.362 128.927 476.474 129.488H443.975L430.278 105.402L429.742 105.585L401.302 129.488H363.4L417.947 87.1588L395.813 53.6705H428.312L439.229 71.5245C439.702 72.2693 440.918 70.9705 441.454 70.555C448.477 65.094 455.199 59.2101 462.166 53.6705H480.443L480.44 53.6667Z" fill="white"/>
<path d="M249.426 53.6667L232.499 105.949H278.954L271.571 129.484H197.209L221.695 53.6667H249.426Z" fill="white"/>
<path d="M585.414 53.6667C584.597 54.6062 583.707 55.5045 582.807 56.3654C567.632 70.8694 552.345 85.2611 537.178 99.7726L527.611 129.484H497.543C497.521 128.938 497.712 128.425 497.854 127.909C500.443 118.581 504.153 109.508 506.832 100.199C506.997 99.9448 506.622 99.2336 506.723 99.1213C506.892 98.9267 511.187 98.4775 511.859 98.4027C519.864 97.5418 527.911 97.4594 535.947 97.1076L544.174 89.0602C542.809 88.6972 541.346 88.9479 539.935 88.8843C529.131 88.4164 509.529 88.132 500.503 82.233C491.346 76.248 490.453 63.5519 489.436 53.663H518.874L528.061 77.9174C528.512 78.0147 533.914 72.3965 534.717 71.6255C540.94 65.6405 547.205 59.6517 553.448 53.663H585.407L585.414 53.6667Z" fill="white"/>
<path d="M537.879 91.7553L537.613 92.1146C529.157 92.3728 520.431 92.4814 512.072 93.7615C496.916 96.0821 491.743 101.633 489.473 116.668C487.932 126.894 487.703 138.247 487.238 148.57C487.159 148.57 486.982 147.237 486.967 147.039C486.183 135.069 487.339 110.77 479.453 101.453C472.344 93.0541 455.391 92.6236 445.067 92.1071C442.538 91.9798 439.353 92.2119 436.949 91.9424C436.679 91.9125 436.393 91.905 436.326 91.5793C437.733 91.5344 439.155 91.6317 440.565 91.5868C450.364 91.2574 468.21 90.9168 476.174 85.0778C485.835 77.9998 485.823 58.4728 486.21 47.4797C486.375 42.8384 486.273 38.1896 486.472 33.5483C486.521 34.1659 486.716 34.8172 486.75 35.4273C487.429 47.8278 486.754 67.7815 492.475 78.7634C498.8 90.9093 517.261 90.9992 529.318 91.5868C532.166 91.7253 535.02 91.7627 537.879 91.759V91.7553Z" fill="white"/>
<path d="M480.26 128.766L463.517 101.457C475.544 104.96 479.146 117.63 480.26 128.766Z" fill="url(#paint1_linear_433_2272)"/>
<path d="M492.685 108.284L495.701 116.249L489.627 134.695C490.036 126.707 490.104 118.416 491.841 110.586C491.983 109.939 492.137 109.167 492.321 108.546C492.4 108.284 492.216 108.232 492.685 108.284Z" fill="url(#paint2_linear_433_2272)"/>
<path d="M341.796 98.4027C340.906 102.037 339.488 105.548 338.382 109.1L337.935 109.194C330.263 108.73 321.924 109.778 314.331 109.194C312.11 109.022 311.592 108.337 311.949 106.087C312.556 102.284 317.152 98.4065 320.997 98.4065H341.796V98.4027Z" fill="#1B1F1C"/>
<path d="M171.639 98.4027L168.109 109.194H143.994C139.639 109.209 142.163 103.8 143.735 101.91C145.071 100.304 148.578 98.4027 150.664 98.4027H171.643H171.639Z" fill="#1B1F1C"/>
<path d="M354.446 42.2845L314.391 43.1453L243.585 42.2545C242.325 39.9938 241.586 37.4822 241.421 34.8996L241.286 32.8073C241.203 32.549 240.513 32.4704 240.22 32.2982C239.275 31.748 238.498 30.8983 237.992 29.9177L237.283 28.1735V24.7187C237.283 22.9258 237.898 20.1298 238.648 18.5016L238.656 18.4867C239.86 15.8329 242.085 12.7487 243.765 10.3831C245.562 7.85662 248.41 3.90779 251.959 3.47735C253.703 3.26774 257.56 3.30143 259.342 3.45863C262.26 3.7169 264.305 6.5391 264.069 9.48107C264.627 9.38001 265.16 9.62705 265.689 9.62705C268.154 9.61956 273.065 8.98326 275.218 9.81794C275.559 9.94894 276.625 10.69 276.711 10.69C276.797 10.69 277.863 9.94894 278.204 9.81794C279.592 9.27895 285.021 9.33135 286.701 9.47733C287.257 9.52599 287.861 9.85911 288.262 9.87782C288.652 9.89654 289.384 9.52599 289.931 9.47733C291.935 9.30141 294.76 9.40995 296.812 9.47733C297.217 9.4923 297.637 9.72436 297.956 9.70939C298.275 9.69442 298.834 9.38375 299.228 9.30515C302.998 8.55656 306.671 8.99074 309.897 11.229C310.715 10.1922 311.975 9.57464 313.269 9.47733C314.98 9.35007 320.375 9.26398 321.767 9.81794C322.093 9.94894 323.125 10.6751 323.237 10.6638C323.458 10.6414 324.051 10.0949 324.363 9.95268C324.73 9.78051 325.469 9.5447 325.867 9.49978C327.581 9.29392 331.637 9.30889 333.374 9.48481C334.627 9.61207 335.628 10.3719 336.615 11.0905C338.296 8.30952 340.07 5.34135 342.021 2.75496C342.797 1.7219 343.488 0.905929 344.748 0.486716C346.624 -0.134617 354.191 -0.0372995 356.352 0.116162C358.486 0.269624 360.685 1.55346 361.375 3.76181C362.515 7.41121 359.916 9.4661 358.606 12.4904C359.792 13.8304 360.974 15.2378 361.754 16.8847C363.194 19.9165 364.2 26.3169 362.966 29.4161C362.823 29.7754 362.448 29.9963 362.407 30.4492C362.272 31.9464 362.534 34.1472 362.151 35.9626C361.154 40.6862 354.438 42.2882 354.438 42.2882L354.446 42.2845Z" fill="#1B1F1C"/>
<path d="M262.328 12.2134C262.902 12.2471 263.51 12.1647 264.08 12.2134C265.314 12.3182 265.367 12.2695 266.545 12.2059C268.244 12.1161 272.911 11.9851 274.314 12.4978C275.252 12.8385 275.721 13.4336 276.355 14.1522C276.846 13.1229 278.144 12.3257 279.281 12.2096C280.883 12.0487 285.918 12.0337 287.309 12.4941C287.538 12.569 287.786 12.8497 287.962 12.8347C288.161 12.8197 288.566 12.4941 288.832 12.408C290.101 12.0038 294.64 12.1161 296.174 12.2059C296.669 12.2358 297.142 12.4904 297.596 12.4754C298.174 12.4567 299.333 11.9514 300.087 11.8391C303.572 11.3188 307.162 12.2171 309.811 14.5453C310.359 13.2315 311.645 12.3519 313.063 12.2134C314.643 12.0562 318.503 12.0375 320.045 12.2471C321.17 12.4005 322.206 13.0892 322.81 14.0287C323.736 13.2352 324.389 12.423 325.699 12.2471C327.293 12.0337 331.041 12.0674 332.684 12.2096C333.836 12.3107 334.908 12.9283 335.58 13.8565C335.895 14.2907 335.925 14.6051 336.124 14.9832C336.203 15.1329 336.233 15.0805 336.383 15.0655C337.354 13.2801 338.405 11.5322 339.527 9.84034C340.363 8.57896 343.083 4.44298 344.137 3.81042C344.655 3.49975 345.191 3.32009 345.799 3.26769C348.819 3.00568 352.218 3.46232 355.275 3.28266C357.102 3.69439 358.532 5.31135 358.479 7.22775C358.419 9.37247 355.872 11.8653 355.062 13.8116C355.005 13.9426 354.926 14.0512 354.971 14.2084C355.013 14.3431 356.72 15.8029 357.035 16.1772C359.533 19.1641 360.606 24.0112 360.284 27.8403C360.164 29.2626 359.203 30.2283 359.117 30.9657C358.993 32.0511 359.507 32.6612 358.956 34.0349C358.382 35.461 356.022 39.1852 355.062 40.5215C350.132 47.3786 339.185 47.7753 333.066 42.2956C332.264 43.6618 331.727 44.897 330.084 45.4173C328.737 45.8402 324.716 45.7878 323.185 45.6755C322.645 45.6344 321.711 45.29 321.369 45.2937C321.152 45.2937 320.728 45.5632 320.424 45.6344C316.41 46.5963 312.339 46.0798 309.158 43.3362C308.607 44.3131 307.744 45.1852 306.63 45.4809C305.335 45.829 299.851 45.8252 298.538 45.5033C297.465 45.2413 296.692 44.5639 296.032 43.7254C295.626 44.2869 295.131 44.8633 294.497 45.174C293.03 45.8926 287.234 45.8477 285.569 45.4771C285.246 45.406 284.563 45.0317 284.361 45.0505C284.143 45.0692 283.573 45.406 283.239 45.4771C281.678 45.8215 278.193 45.8028 276.539 45.6718C275.995 45.6306 275.155 45.2975 274.742 45.3199C274.055 45.3574 272.78 45.9562 271.849 46.0423C268.863 46.3156 265.847 45.7579 263.397 44.0024C262.827 44.3543 262.482 44.8296 261.844 45.1365C258.956 46.5177 253.182 46.338 250.275 45.0467C244.16 42.3293 244.647 36.4865 244.775 30.7635C242.903 30.8197 241.222 29.3599 240.933 27.5296C240.686 25.9613 240.705 21.5259 241.346 20.1522C242.46 17.7605 244.509 14.9121 246.129 12.8684C247.892 10.6488 248.598 6.67753 251.978 6.38932C253.362 6.26955 258.34 6.21715 259.481 6.5615C260.951 7.00317 262.309 8.65756 262.309 10.2184V12.2284L262.328 12.2134Z" fill="url(#paint3_linear_433_2272)"/>
<path d="M333.655 24.2732C333.794 24.2545 333.892 24.1085 333.971 24.0037C334.968 22.7087 336.233 20.3618 337.141 18.8684C339.782 14.5303 342.216 10.1023 345.413 6.11982C345.604 5.93641 345.807 5.89149 346.062 5.86155C348.706 5.55463 351.933 6.1011 354.641 5.86155C355.5 5.96261 356.149 6.90584 355.71 7.71432C354.36 9.5072 353.381 12.0337 352.03 13.763C351.674 14.2233 351.194 14.4592 350.807 14.8746C354.75 16.3606 357.252 20.1896 357.56 24.3406C357.616 25.0967 357.673 27.96 357.462 28.5177C357.271 29.0193 355.846 30.8908 355.868 31.2052C355.868 31.2539 356.416 31.4784 356.558 31.8303C356.697 32.1671 356.701 32.5152 356.626 32.8671C354.919 36.3331 353.49 39.1553 350.856 41.1091C345.889 44.7884 338.078 44.1259 333.986 39.4472C333.772 39.2002 332.946 37.9201 332.815 37.8901C332.631 37.849 332.594 37.9949 332.511 38.1035C331.888 38.9419 330.17 42.479 329.551 42.7972C329.42 42.8645 329.322 42.9132 329.172 42.9357C328.178 43.0929 323.688 43.0891 322.69 42.9357C322.045 42.8346 321.924 42.2058 321.763 42.1684C321.658 42.1459 320.233 42.9506 319.827 43.0779C315.682 44.3655 310.441 42.8159 309.233 38.2757C309.016 38.1072 306.731 42.6212 306.213 42.8458C306.014 42.9319 305.872 42.9319 305.669 42.9506C303.565 43.1415 301.104 42.8421 298.965 42.887C298.594 42.7111 298.268 42.3854 298.2 41.9662C297.997 38.3655 298.448 34.5177 298.2 30.9507C298.151 30.2657 298.046 29.1915 297.543 28.6862V35.8802C297.543 36.2507 294.276 41.6855 293.826 42.2806C293.657 42.5015 293.466 42.6961 293.256 42.8758L286.18 42.9394C285.989 42.9357 285.332 42.2844 285.332 42.2282V39.3125C284.987 39.2376 285.13 39.3986 285.062 39.5034C284.62 40.1846 283.333 42.8121 282.665 42.9394C280.624 42.7597 278.152 43.1902 276.167 42.9469C275.496 42.8645 275.286 42.2058 275.136 42.1908C275.053 42.1833 273.943 42.8084 273.673 42.9095C270.022 44.2607 264.767 43.3287 263.112 39.4397C261.953 40.3605 261.852 42.3256 260.389 42.8795C258.247 43.688 254.412 43.6431 252.229 42.9768C245.491 40.9219 247.81 33.4772 247.393 28.1622H244.471C244.088 28.1622 243.563 27.3125 243.507 26.9195C243.286 25.3624 243.597 23.2851 243.556 21.6756C244.899 19.8677 245.957 17.0119 247.337 15.335C247.611 15.0019 247.96 14.8746 248.23 14.5415C249.325 13.209 250.181 10.6788 251.287 9.42486C251.569 9.1067 251.85 9.02062 252.263 8.9757C253.557 8.82972 257.087 8.8185 258.374 8.9757C258.745 9.02062 259.605 9.43234 259.605 9.82161V14.811H263.956C264.511 14.811 265.187 15.9264 265.063 16.4953L265.832 15.2564C266.061 14.9981 266.357 14.8709 266.699 14.8222C267.888 14.6538 271.711 14.6613 272.926 14.8072C273.654 14.8933 274.074 15.3163 274.16 16.0387C274.588 19.6319 273.455 25.2876 274.453 28.5814C274.521 28.8022 274.629 29.3 274.937 29.2027V21.4884C276.299 19.8378 277.315 16.8696 278.643 15.335C278.959 14.9719 279.337 14.8484 279.803 14.8035C281.056 14.6837 284.728 14.6351 285.906 14.8185C286.435 14.9008 287.148 15.5109 287.148 16.0424V18.4417L289.039 15.335C289.223 15.1254 289.575 14.8971 289.842 14.8409C290.768 14.6538 294.884 14.695 295.919 14.811C296.643 14.8933 297.138 15.5858 297.326 15.5671C297.536 15.5484 298.155 15.1179 298.455 15.0056C301.861 13.7592 306.146 14.1522 308.513 17.1541L309.886 19.6057C310.501 18.7149 312.024 15.3612 312.842 14.9682C313.093 14.8484 313.315 14.8297 313.589 14.8035C314.564 14.7137 319.122 14.665 319.872 14.8933C320.289 15.0206 320.728 15.481 320.795 15.9152C321.028 19.5795 320.51 23.5658 320.795 27.189C320.825 27.567 320.915 28.0274 321.02 28.3905C321.08 28.5963 321.238 29.1054 321.448 29.1952V21.743C321.448 21.3687 324.892 15.8141 325.29 15.335C325.646 14.9046 325.901 14.8559 326.445 14.8035C327.814 14.6762 331.093 14.6463 332.429 14.8035C332.8 14.8484 333.659 15.2601 333.659 15.6494V24.2695L333.655 24.2732ZM354.446 7.1641H346.129L342.231 12.9994H347.495L354.446 7.1641ZM258.299 10.2745H252.192V16.1098H248.294V21.0355H252.192V30.9544C252.192 33.0318 253.823 35.0268 255.703 35.7492C258.014 36.64 261.507 36.5651 263.757 35.6219V30.7598C262.294 31.2351 259.394 31.6955 258.663 29.9438C258.502 29.5583 258.299 28.3643 258.299 27.975V21.0393H263.757V16.1135H258.299V10.2783V10.2745ZM309.102 35.8128C308.926 31.7891 309.338 27.567 309.102 23.5621C308.877 19.7704 307.688 16.2969 303.437 15.7355C300.492 15.3462 297.667 16.1585 295.983 18.6999V16.1061H290.138V35.809H296.245V24.3368C296.245 23.4909 297.026 22.0424 297.739 21.5483C298.841 20.781 301.085 20.7698 302.019 21.8178C302.514 22.3718 303.002 23.8765 303.002 24.5989V35.8128H309.109H309.102ZM356.262 27.9039V24.0786C356.262 20.9083 353.385 17.1953 350.41 16.1772C341.961 13.2839 333.64 20.9569 336.675 29.6219C339.343 37.2426 350.413 38.605 355.35 32.504L351.13 29.3637C350.275 30.116 349.667 31.018 348.538 31.4111C345.72 32.3917 342.689 30.9245 342.231 27.9076H356.262V27.9039ZM272.851 16.1061H266.744C266.894 20.0175 266.549 24.0748 266.74 27.9713C266.901 31.2913 267.554 34.9032 271.193 35.9737C274.415 36.9207 277.931 36.1871 279.87 33.3462V35.809H285.846V16.3007C285.846 16.3007 285.666 16.1061 285.651 16.1061H279.806C279.806 16.1061 279.611 16.2857 279.611 16.3007V27.7093C279.611 28.2033 279.045 29.5059 278.7 29.9101C277.732 31.0442 275.215 31.3137 274.089 30.3705C273.072 29.5171 272.919 27.5333 272.851 26.2907C272.675 22.9557 272.994 19.4598 272.855 16.1098L272.851 16.1061ZM319.494 16.1061H313.386C313.559 20.1747 313.153 24.4342 313.386 28.4841C313.495 30.3481 313.844 32.6125 315.022 34.1135C317.355 37.0891 323.275 37.0779 325.732 34.1921L326.509 33.2152V35.809H332.354V16.1061H326.246V27.5783C326.246 27.9264 325.871 29.0043 325.691 29.3562C324.566 31.5121 320.882 31.6469 319.91 29.2364C319.782 28.9182 319.494 27.7429 319.494 27.4473V16.1023V16.1061ZM261.938 29.8502V26.4816L260.966 27.9114C260.565 28.2295 260.051 28.106 259.597 28.2333C259.698 30.0711 260.287 29.8989 261.938 29.8502Z" fill="#1B1F1C"/>
<path d="M356.261 27.9039H342.231C342.685 30.9207 345.72 32.388 348.537 31.4073C349.666 31.0143 350.274 30.1122 351.129 29.3599L355.35 32.5003C350.413 38.6013 339.346 37.2388 336.675 29.6182C333.64 20.9569 341.961 13.2801 350.409 16.1734C353.384 17.1915 356.261 20.9045 356.261 24.0748V27.9001V27.9039ZM350.158 23.7567C350.222 18.6064 342.49 18.9732 342.231 23.7567H350.158Z" fill="white"/>
<path d="M272.851 16.106C272.99 19.456 272.667 22.9519 272.847 26.2869C272.915 27.5296 273.068 29.5134 274.085 30.3667C275.21 31.31 277.728 31.0405 278.696 29.9064C279.041 29.5021 279.607 28.1996 279.607 27.7055V16.2969C279.607 16.2969 279.787 16.1023 279.802 16.1023H285.647C285.647 16.1023 285.842 16.282 285.842 16.2969V35.8053H279.866V33.3424C277.927 36.1833 274.411 36.9207 271.189 35.97C267.55 34.8995 266.901 31.2875 266.736 27.9675C266.544 24.0711 266.89 20.0137 266.74 16.1023H272.847L272.851 16.106Z" fill="white"/>
<path d="M319.493 16.1061V27.451C319.493 27.7467 319.782 28.9183 319.909 29.2402C320.881 31.6469 324.565 31.5159 325.691 29.3599C325.874 29.0081 326.246 27.9301 326.246 27.582V16.1098H332.353V35.8128H326.508V33.2189L325.732 34.1958C323.275 37.0779 317.355 37.0929 315.021 34.1172C313.847 32.6163 313.494 30.3518 313.386 28.4878C313.153 24.4379 313.558 20.1784 313.386 16.1098H319.493V16.1061Z" fill="white"/>
<path d="M309.101 35.8128H302.994V24.5989C302.994 23.8765 302.506 22.3718 302.011 21.8178C301.077 20.7736 298.833 20.7848 297.73 21.5484C297.018 22.0424 296.237 23.491 296.237 24.3369V35.8091H290.13V16.1061H295.975V18.7C297.659 16.1585 300.484 15.3463 303.429 15.7355C307.679 16.297 308.869 19.7742 309.094 23.5621C309.334 27.5633 308.917 31.7891 309.094 35.8128H309.101Z" fill="white"/>
<path d="M258.299 10.2745V16.1098H263.757V21.0355H258.299V27.9713C258.299 28.3605 258.501 29.5583 258.662 29.9401C259.39 31.6918 262.294 31.2314 263.757 30.756V35.6181C261.506 36.5614 258.013 36.6362 255.703 35.7454C253.823 35.023 252.191 33.028 252.191 30.9507V21.0318H248.293V16.106H252.191V10.2708H258.299V10.2745Z" fill="white"/>
<path d="M354.446 7.16406L347.494 12.9956H342.231L346.129 7.16406H354.446Z" fill="white"/>
<path d="M261.938 29.8502C260.287 29.8952 259.698 30.0711 259.597 28.2333C260.051 28.106 260.565 28.2258 260.966 27.9114L261.938 26.4816V29.8502Z" fill="url(#paint4_linear_433_2272)"/>
<path d="M350.158 23.7567H342.231C342.486 18.9732 350.218 18.6064 350.158 23.7567Z" fill="#1B1F1C"/>
</g>
<defs>
<linearGradient id="paint0_linear_433_2272" x1="3.74463" y1="95.4384" x2="596.34" y2="95.4384" gradientUnits="userSpaceOnUse">
<stop stop-color="#18FB3D"/>
<stop offset="1" stop-color="#4BFF9E"/>
</linearGradient>
<linearGradient id="paint1_linear_433_2272" x1="463.517" y1="115.111" x2="480.26" y2="115.111" gradientUnits="userSpaceOnUse">
<stop stop-color="#18FB3D"/>
<stop offset="1" stop-color="#4BFF9E"/>
</linearGradient>
<linearGradient id="paint2_linear_433_2272" x1="489.627" y1="121.48" x2="495.701" y2="121.48" gradientUnits="userSpaceOnUse">
<stop stop-color="#18FB3D"/>
<stop offset="1" stop-color="#4BFF9E"/>
</linearGradient>
<linearGradient id="paint3_linear_433_2272" x1="240.786" y1="24.6463" x2="360.339" y2="24.6463" gradientUnits="userSpaceOnUse">
<stop stop-color="#18FB3D"/>
<stop offset="1" stop-color="#4BFF9E"/>
</linearGradient>
<linearGradient id="paint4_linear_433_2272" x1="259.597" y1="28.1788" x2="261.938" y2="28.1788" gradientUnits="userSpaceOnUse">
<stop stop-color="#18FB3D"/>
<stop offset="1" stop-color="#4BFF9E"/>
</linearGradient>
<clipPath id="clip0_433_2272">
<rect width="600" height="185" fill="white"/>
</clipPath>
</defs>
</svg>
